<?xml version="1.0" standalone="no"?>
<!DOCTYPE svg PUBLIC "-//W3C//DTD SVG 20010904//EN"
 "http://www.w3.org/TR/2001/REC-SVG-20010904/DTD/svg10.dtd">
<svg version="1.0" xmlns="http://www.w3.org/2000/svg"
 width="500.000000pt" height="500.000000pt" viewBox="0 0 500.000000 500.000000"
 preserveAspectRatio="xMidYMid meet">

<g transform="translate(0.000000,500.000000) scale(0.100000,-0.100000)"
fill="#000000" stroke="none">
<path d="M790 3745 l0 -325 25 0 25 0 0 300 0 300 300 0 300 0 0 25 0 25 -325
0 -325 0 0 -325z"/>
<path d="M3560 4045 l0 -25 300 0 300 0 0 -300 0 -300 25 0 25 0 0 325 0 325
-325 0 -325 0 0 -25z"/>
<path d="M3684 3720 c-30 -12 -71 -64 -79 -100 -4 -16 -2 -45 4 -63 39 -116
204 -131 255 -23 21 45 20 71 -4 122 -31 63 -109 91 -176 64z"/>
<path d="M1695 2675 c-30 -29 -32 -58 -5 -85 39 -39 110 -11 110 44 0 25 -41
66 -67 66 -8 0 -25 -11 -38 -25z"/>
<path d="M1160 2436 l0 -236 45 0 45 0 0 90 0 90 71 0 c88 0 130 22 153 80 20
51 20 90 0 132 -30 63 -55 73 -191 76 l-123 4 0 -236z m226 129 c20 -27 17
-62 -6 -85 -15 -15 -33 -20 -75 -20 l-55 0 0 66 0 66 61 -4 c45 -3 65 -10 75
-23z"/>
<path d="M2080 2533 c-95 -36 -139 -166 -87 -258 27 -48 93 -85 152 -85 57 0
123 37 149 82 24 42 18 52 -31 63 -28 6 -34 3 -47 -24 -32 -61 -130 -49 -152
19 -22 68 17 130 83 130 33 0 74 -29 84 -58 5 -16 79 4 79 22 0 25 -46 81 -80
98 -34 17 -117 23 -150 11z"/>
<path d="M2484 2530 c-29 -12 -64 -58 -64 -86 0 -63 36 -96 121 -109 57 -9 72
-17 67 -41 -2 -14 -13 -20 -44 -22 -40 -3 -67 11 -76 39 -6 17 -78 -8 -78 -26
0 -24 50 -73 87 -86 44 -14 123 -6 157 16 29 20 49 73 41 108 -11 41 -47 67
-113 80 -75 15 -96 32 -67 53 23 17 64 11 82 -13 12 -15 16 -15 48 0 32 15 34
19 25 38 -27 49 -123 75 -186 49z"/>
<path d="M1590 2490 l0 -40 50 0 50 0 0 -85 0 -85 -55 0 -55 0 0 -40 0 -40
150 0 150 0 0 40 0 40 -50 0 -50 0 0 125 0 125 -95 0 -95 0 0 -40z"/>
<path d="M1245 1926 c-42 -18 -82 -68 -96 -119 -6 -23 -9 -84 -7 -137 6 -148
46 -208 147 -218 46 -4 53 -2 81 27 17 17 33 31 36 31 2 0 4 -11 4 -25 0 -22
4 -25 40 -25 l40 0 0 120 0 120 -100 0 -100 0 0 -45 0 -45 55 0 c42 0 55 -3
55 -15 0 -27 -38 -55 -74 -55 -48 0 -65 8 -81 41 -17 33 -21 183 -5 224 28 74
160 56 160 -22 0 -21 5 -23 45 -23 40 0 45 2 45 23 0 12 -10 43 -22 67 -39 76
-143 111 -223 76z"/>
<path d="M2920 1765 l0 -165 45 0 45 0 0 165 0 165 -45 0 -45 0 0 -165z"/>
<path d="M1734 1775 c-30 -30 -34 -31 -34 -5 0 18 -7 20 -70 20 l-70 0 0 -40
c0 -38 2 -40 30 -40 l30 0 0 -85 0 -85 -35 0 c-34 0 -35 -1 -35 -40 l0 -40
115 0 115 0 0 40 0 40 -41 0 -42 0 5 75 c6 89 18 107 67 103 31 -3 37 -8 46
-36 6 -21 14 -31 23 -27 7 3 27 5 44 5 30 0 30 0 24 43 -13 87 -114 130 -172
72z"/>
<path d="M2038 1785 c-69 -38 -98 -164 -56 -245 32 -63 80 -93 138 -87 31 4
51 13 66 31 l22 25 16 -24 c13 -20 25 -25 61 -25 l45 0 0 39 c0 30 -4 40 -20
44 -19 5 -20 14 -20 126 l0 121 -40 0 c-34 0 -40 -3 -40 -21 0 -20 -1 -20 -31
5 -35 30 -97 35 -141 11z m141 -82 c45 -37 36 -139 -15 -162 -38 -17 -63 -13
-89 14 -34 33 -35 108 -3 142 26 28 77 31 107 6z"/>
<path d="M2478 1780 c-15 -24 -28 -26 -28 -5 0 11 -11 15 -40 15 l-40 0 0
-165 0 -165 40 0 40 0 0 118 c0 124 6 146 36 140 17 -3 19 -15 22 -131 l3
-127 39 0 40 0 0 118 c0 124 6 146 36 140 17 -3 19 -15 22 -131 l3 -127 39 0
40 0 0 150 c0 137 -2 152 -20 170 -26 26 -81 26 -105 0 l-18 -20 -19 20 c-25
26 -74 26 -90 0z"/>
<path d="M790 1255 l0 -325 325 0 325 0 0 25 0 25 -300 0 -300 0 0 300 0 300
-25 0 -25 0 0 -325z"/>
<path d="M2920 1560 c-39 -39 -11 -110 44 -110 25 0 66 41 66 67 0 21 -46 63
-70 63 -11 0 -29 -9 -40 -20z"/>
<path d="M4160 1280 l0 -300 -300 0 -300 0 0 -25 0 -25 325 0 325 0 0 325 0
325 -25 0 -25 0 0 -300z"/>
</g>
</svg>
